# xmcd
#
# Track frame offsets:
#	150
#	15933
#	28736
#	45724
#	63517
#	83524
#	94995
#	112655
#	134613
#	149751
#	168188
#	184031
#	195848
#	211944
#
# Disc length: 3066 seconds
#
# Revision: 0
# Processed by: cddbd v1.5.2PL0 Copyright (c) Steve Scherf et al.
# Submitted via: EasyCDDAExtractor 10.0.3.1
#
DISCID=b40bf80e
DTITLE=Don Omar - El Orfanato
DYEAR=1900
DGENRE=
TTITLE0=Me Muero (Official Remix)
TTITLE1=Entrevista El Orfanato Parte 1
TTITLE2=Todo Lo Que Soy
TTITLE3=Isla Bonita
TTITLE4=Cynderella (Umbrella Remix)
TTITLE5=Entrevista El Orfanato Parte 2
TTITLE6=Canci¾n De Amor
TTITLE7=El Cantante
TTITLE8=Wanna Love You (Oficial Rmx)
TTITLE9=Entrevista El Orfanato Parte 3
TTITLE10=Dentro De Mi
TTITLE11=Salvaje (New Beat)
TTITLE12=Run The Show
TTITLE13=Pobre Corazon
EXTD=
EXTT0=
EXTT1=
EXTT2=
EXTT3=
EXTT4=
EXTT5=
EXTT6=
EXTT7=
EXTT8=
EXTT9=
EXTT10=
EXTT11=
EXTT12=
EXTT13=
PLAYORDER=
